<?xml version="1.0" encoding="UTF-8" standalone="no"?>
<svg
   xmlns:dc="http://purl.org/dc/elements/1.1/"
   xmlns:cc="http://creativecommons.org/ns#"
   xmlns:rdf="http://www.w3.org/1999/02/22-rdf-syntax-ns#"
   xmlns:svg="http://www.w3.org/2000/svg"
   xmlns="http://www.w3.org/2000/svg"
   xmlns:xlink="http://www.w3.org/1999/xlink"
   xmlns:sodipodi="http://sodipodi.sourceforge.net/DTD/sodipodi-0.dtd"
   xmlns:inkscape="http://www.inkscape.org/namespaces/inkscape"
   height="24"
   width="24"
   version="1.1"
   id="svg6"
   sodipodi:docname="select_all.svg"
   inkscape:version="0.92.2 2405546, 2018-03-11">
  <metadata
     id="metadata12">
    <rdf:RDF>
      <cc:Work
         rdf:about="">
        <dc:format>image/svg+xml</dc:format>
        <dc:type
           rdf:resource="http://purl.org/dc/dcmitype/StillImage" />
        <dc:title></dc:title>
      </cc:Work>
    </rdf:RDF>
  </metadata>
  <defs
     id="defs10">
    <linearGradient
       inkscape:collect="always"
       xlink:href="#linearGradient4236"
       id="linearGradient2427"
       gradientUnits="userSpaceOnUse"
       gradientTransform="matrix(0.33489481,-0.08064678,0.08017949,0.33684655,987.71623,-155.47846)"
       x1="-86.12886"
       y1="2.0690987"
       x2="-93.088425"
       y2="31.137911" />
    <linearGradient
       id="linearGradient4236">
      <stop
         id="stop4238"
         style="stop-color:#cdf87e;stop-opacity:1"
         offset="0" />
      <stop
         id="stop4240"
         style="stop-color:#a2e34f;stop-opacity:1"
         offset="0.32983667" />
      <stop
         id="stop4242"
         style="stop-color:#68b723;stop-opacity:1"
         offset="0.852476" />
      <stop
         id="stop4244"
         style="stop-color:#1d7e0d;stop-opacity:1"
         offset="1" />
    </linearGradient>
    <linearGradient
       inkscape:collect="always"
       xlink:href="#linearGradient3400"
       id="linearGradient2431"
       gradientUnits="userSpaceOnUse"
       gradientTransform="matrix(0.4138818,0,0,0.416294,-1.7222411,-1.7775922)"
       x1="20.494444"
       y1="7.0440302"
       x2="20.494444"
       y2="39.780327" />
    <linearGradient
       inkscape:collect="always"
       id="linearGradient3400">
      <stop
         style="stop-color:#ffffff;stop-opacity:1;"
         offset="0"
         id="stop3402" />
      <stop
         style="stop-color:#ffffff;stop-opacity:0;"
         offset="1"
         id="stop3404" />
    </linearGradient>
    <clipPath
       clipPathUnits="userSpaceOnUse"
       id="clipPath3852">
      <path
         style="color:#000000;font-style:normal;font-variant:normal;font-weight:normal;font-stretch:normal;font-size:medium;line-height:normal;font-family:Sans;-inkscape-font-specification:Sans;text-indent:0;text-align:start;text-decoration:none;text-decoration-line:none;letter-spacing:normal;word-spacing:normal;text-transform:none;writing-mode:lr-tb;direction:ltr;baseline-shift:baseline;text-anchor:start;display:inline;overflow:visible;visibility:visible;fill:#000000;fill-opacity:1;stroke:none;stroke-width:1;marker:none;enable-background:accumulate"
         d="M 3.5,2 C 3.5,2 3.099493,1.9971285 2.71875,2.1875 2.338007,2.3778715 2,2.6666667 2,3.5 v 9 c 0,0 -0.00287,0.400507 0.1875,0.78125 C 2.3778715,13.661993 2.6666667,14 3.5,14 h 9 c 0,0 0.400507,0.0029 0.78125,-0.1875 C 13.661993,13.622128 14,13.333333 14,12.5 v -9 C 14,3.5 14.0029,3.099493 13.8125,2.71875 13.622128,2.338007 13.333333,2 12.5,2 Z"
         id="path3854"
         inkscape:connector-curvature="0" />
    </clipPath>
    <clipPath
       clipPathUnits="userSpaceOnUse"
       id="clipPath3852-2">
      <path
         style="color:#000000;font-style:normal;font-variant:normal;font-weight:normal;font-stretch:normal;font-size:medium;line-height:normal;font-family:Sans;-inkscape-font-specification:Sans;text-indent:0;text-align:start;text-decoration:none;text-decoration-line:none;letter-spacing:normal;word-spacing:normal;text-transform:none;writing-mode:lr-tb;direction:ltr;baseline-shift:baseline;text-anchor:start;display:inline;overflow:visible;visibility:visible;fill:#000000;fill-opacity:1;stroke:none;stroke-width:1;marker:none;enable-background:accumulate"
         d="M 3.5,2 C 3.5,2 3.099493,1.9971285 2.71875,2.1875 2.338007,2.3778715 2,2.6666667 2,3.5 v 9 c 0,0 -0.00287,0.400507 0.1875,0.78125 C 2.3778715,13.661993 2.6666667,14 3.5,14 h 9 c 0,0 0.400507,0.0029 0.78125,-0.1875 C 13.661993,13.622128 14,13.333333 14,12.5 v -9 C 14,3.5 14.0029,3.099493 13.8125,2.71875 13.622128,2.338007 13.333333,2 12.5,2 Z"
         id="path3854-2"
         inkscape:connector-curvature="0" />
    </clipPath>
    <linearGradient
       gradientTransform="translate(-6.6440677,4.7457628)"
       inkscape:collect="always"
       xlink:href="#linearGradient3821"
       id="linearGradient4448"
       x1="8"
       y1="16"
       x2="8"
       y2="0"
       gradientUnits="userSpaceOnUse" />
    <linearGradient
       id="linearGradient3821">
      <stop
         style="stop-color:#ffffff;stop-opacity:1;"
         offset="0"
         id="stop3823" />
      <stop
         style="stop-color:#ffffff;stop-opacity:1;"
         offset="1"
         id="stop3825" />
    </linearGradient>
    <clipPath
       clipPathUnits="userSpaceOnUse"
       id="clipPath3852-9">
      <path
         style="color:#000000;font-style:normal;font-variant:normal;font-weight:normal;font-stretch:normal;font-size:medium;line-height:normal;font-family:Sans;-inkscape-font-specification:Sans;text-indent:0;text-align:start;text-decoration:none;text-decoration-line:none;letter-spacing:normal;word-spacing:normal;text-transform:none;writing-mode:lr-tb;direction:ltr;baseline-shift:baseline;text-anchor:start;display:inline;overflow:visible;visibility:visible;fill:#000000;fill-opacity:1;stroke:none;stroke-width:1;marker:none;enable-background:accumulate"
         d="M 3.5,2 C 3.5,2 3.099493,1.9971285 2.71875,2.1875 2.338007,2.3778715 2,2.6666667 2,3.5 v 9 c 0,0 -0.00287,0.400507 0.1875,0.78125 C 2.3778715,13.661993 2.6666667,14 3.5,14 h 9 c 0,0 0.400507,0.0029 0.78125,-0.1875 C 13.661993,13.622128 14,13.333333 14,12.5 v -9 C 14,3.5 14.0029,3.099493 13.8125,2.71875 13.622128,2.338007 13.333333,2 12.5,2 Z"
         id="path3854-4"
         inkscape:connector-curvature="0" />
    </clipPath>
    <linearGradient
       gradientTransform="translate(11.415474,23.76619)"
       inkscape:collect="always"
       xlink:href="#linearGradient3821"
       id="linearGradient4448-7"
       x1="8"
       y1="16"
       x2="8"
       y2="0"
       gradientUnits="userSpaceOnUse" />
    <clipPath
       clipPathUnits="userSpaceOnUse"
       id="clipPath3852-0">
      <path
         style="color:#000000;font-style:normal;font-variant:normal;font-weight:normal;font-stretch:normal;font-size:medium;line-height:normal;font-family:Sans;-inkscape-font-specification:Sans;text-indent:0;text-align:start;text-decoration:none;text-decoration-line:none;letter-spacing:normal;word-spacing:normal;text-transform:none;writing-mode:lr-tb;direction:ltr;baseline-shift:baseline;text-anchor:start;display:inline;overflow:visible;visibility:visible;fill:#000000;fill-opacity:1;stroke:none;stroke-width:1;marker:none;enable-background:accumulate"
         d="M 3.5,2 C 3.5,2 3.099493,1.9971285 2.71875,2.1875 2.338007,2.3778715 2,2.6666667 2,3.5 v 9 c 0,0 -0.00287,0.400507 0.1875,0.78125 C 2.3778715,13.661993 2.6666667,14 3.5,14 h 9 c 0,0 0.400507,0.0029 0.78125,-0.1875 C 13.661993,13.622128 14,13.333333 14,12.5 v -9 C 14,3.5 14.0029,3.099493 13.8125,2.71875 13.622128,2.338007 13.333333,2 12.5,2 Z"
         id="path3854-6"
         inkscape:connector-curvature="0" />
    </clipPath>
    <linearGradient
       gradientTransform="translate(12.470142,6.891506)"
       inkscape:collect="always"
       xlink:href="#linearGradient3821"
       id="linearGradient4448-3"
       x1="8"
       y1="16"
       x2="8"
       y2="0"
       gradientUnits="userSpaceOnUse" />
  </defs>
  <sodipodi:namedview
     pagecolor="#ffffff"
     bordercolor="#666666"
     borderopacity="1"
     objecttolerance="10"
     gridtolerance="10"
     guidetolerance="10"
     inkscape:pageopacity="0"
     inkscape:pageshadow="2"
     inkscape:window-width="1680"
     inkscape:window-height="1001"
     id="namedview8"
     showgrid="false"
     inkscape:zoom="5.2149125"
     inkscape:cx="-43.851972"
     inkscape:cy="55.738743"
     inkscape:window-x="0"
     inkscape:window-y="23"
     inkscape:window-maximized="1"
     inkscape:current-layer="svg6" />
  <g
     id="g1142"
     transform="matrix(1.1887542,0,0,1.1887542,7.632848,-5.733701)">
    <path
       sodipodi:nodetypes="ccccccccc"
       inkscape:connector-curvature="0"
       id="path4436"
       d="m -5.1440677,8.2457629 v 9.0000001 c 0,2 2.0000001,2 2.0000001,2 h 8.9999997 c 2,0 2,-2 2,-2 V 8.2457629 c 0,-2.0000001 -2,-2.0000001 -2,-2.0000001 h -8.9999997 c -2.0000001,0 -2.0000001,2.0000001 -2.0000001,2.0000001 z"
       style="color:#000000;font-style:normal;font-variant:normal;font-weight:normal;font-stretch:normal;font-size:medium;line-height:normal;font-family:Sans;-inkscape-font-specification:Sans;text-indent:0;text-align:start;text-decoration:none;text-decoration-line:none;letter-spacing:normal;word-spacing:normal;text-transform:none;writing-mode:lr-tb;direction:ltr;baseline-shift:baseline;text-anchor:start;display:inline;overflow:visible;visibility:visible;fill:url(#linearGradient4448);fill-opacity:1;stroke:none;stroke-width:1;marker:none;enable-background:accumulate" />
    <path
       style="color:#000000;font-style:normal;font-variant:normal;font-weight:normal;font-stretch:normal;font-size:medium;line-height:normal;font-family:Sans;-inkscape-font-specification:Sans;text-indent:0;text-align:start;text-decoration:none;text-decoration-line:none;letter-spacing:normal;word-spacing:normal;text-transform:none;writing-mode:lr-tb;direction:ltr;baseline-shift:baseline;text-anchor:start;display:inline;overflow:visible;visibility:visible;opacity:0.41000001;fill:none;fill-opacity:1;stroke:#000000;stroke-width:1;stroke-opacity:1;marker:none;enable-background:accumulate"
       d="M -5.1440677,17.245763 V 8.2457629 c 0,-2.0000001 2.0000001,-2.0000001 2.0000001,-2.0000001 h 8.9999997 c 2,0 2,2.0000001 2,2.0000001 v 9.0000001 c 0,2 -2,2 -2,2 h -8.9999997 c -2.0000001,0 -2.0000001,-2 -2.0000001,-2 z"
       id="path3832"
       inkscape:connector-curvature="0"
       sodipodi:nodetypes="ccccccccc" />
    <path
       id="path3811"
       d="m -3.1440676,6.7457629 c 0,0 -0.400507,-0.00287 -0.78125,0.1875 -0.380743,0.1903715 -0.71875,0.4791667 -0.71875,1.3125 v 1 c 0,-0.8333333 0.338007,-1.1221285 0.71875,-1.3125 0.380743,-0.19037 0.78125,-0.1875 0.78125,-0.1875 h 8.9999997 c 0.833333,0 1.122128,0.338007 1.3125,0.71875 0.1904,0.380743 0.1875,0.78125 0.1875,0.78125 v -1 c 0,0 0.0029,-0.400507 -0.1875,-0.78125 -0.190372,-0.380743 -0.479167,-0.71875 -1.3125,-0.71875 z"
       style="color:#000000;font-style:normal;font-variant:normal;font-weight:normal;font-stretch:normal;font-size:medium;line-height:normal;font-family:Sans;-inkscape-font-specification:Sans;text-indent:0;text-align:start;text-decoration:none;text-decoration-line:none;letter-spacing:normal;word-spacing:normal;text-transform:none;writing-mode:lr-tb;direction:ltr;baseline-shift:baseline;text-anchor:start;display:inline;overflow:visible;visibility:visible;opacity:0.1;fill:#000000;fill-opacity:1;stroke:none;stroke-width:1;marker:none;enable-background:accumulate"
       inkscape:connector-curvature="0" />
    <path
       id="path3825"
       d="m -3.1440676,6.7457629 c 0,0 -0.400507,-0.00287 -0.78125,0.1875 -0.380743,0.1903715 -0.71875,0.4791667 -0.71875,1.3125 v 2.0000001 c 0,-0.8333334 0.338007,-1.1221286 0.71875,-1.3125001 0.380743,-0.19037 0.78125,-0.1875 0.78125,-0.1875 h 8.9999997 c 0.833333,0 1.122128,0.338007 1.3125,0.71875 0.1904,0.380743 0.1875,0.7812501 0.1875,0.7812501 V 8.2457629 c 0,0 0.0029,-0.400507 -0.1875,-0.78125 -0.190372,-0.380743 -0.479167,-0.71875 -1.3125,-0.71875 z"
       style="color:#000000;font-style:normal;font-variant:normal;font-weight:normal;font-stretch:normal;font-size:medium;line-height:normal;font-family:Sans;-inkscape-font-specification:Sans;text-indent:0;text-align:start;text-decoration:none;text-decoration-line:none;letter-spacing:normal;word-spacing:normal;text-transform:none;writing-mode:lr-tb;direction:ltr;baseline-shift:baseline;text-anchor:start;display:inline;overflow:visible;visibility:visible;opacity:0.05;fill:#000000;fill-opacity:1;stroke:none;stroke-width:1;marker:none;enable-background:accumulate"
       inkscape:connector-curvature="0" />
    <path
       clip-path="url(#clipPath3852-2)"
       style="color:#000000;font-style:normal;font-variant:normal;font-weight:normal;font-stretch:normal;font-size:medium;line-height:normal;font-family:Sans;-inkscape-font-specification:Sans;text-indent:0;text-align:start;text-decoration:none;text-decoration-line:none;letter-spacing:normal;word-spacing:normal;text-transform:none;writing-mode:lr-tb;direction:ltr;baseline-shift:baseline;text-anchor:start;display:inline;overflow:visible;visibility:visible;opacity:0.05;fill:none;fill-opacity:1;stroke:#000000;stroke-width:2;stroke-miterlimit:4;stroke-dasharray:none;stroke-opacity:1;marker:none;enable-background:accumulate"
       d="M 3.5,2 C 3.5,2 3.099493,1.9971285 2.71875,2.1875 2.338007,2.3778715 2,2.6666667 2,3.5 v 9 c 0,0 -0.00287,0.400507 0.1875,0.78125 C 2.3778715,13.661993 2.6666667,14 3.5,14 h 9 c 0,0 0.400507,0.0029 0.78125,-0.1875 C 13.661993,13.622128 14,13.333333 14,12.5 v -9 C 14,3.5 14.0029,3.099493 13.8125,2.71875 13.622128,2.338007 13.333333,2 12.5,2 Z"
       id="path3850"
       inkscape:connector-curvature="0"
       transform="translate(-6.6440677,4.7457628)" />
  </g>
  <g
     id="g1195"
     transform="matrix(1.1887542,0,0,1.1887542,-11.303744,-25.780606)">
    <path
       sodipodi:nodetypes="ccccccccc"
       inkscape:connector-curvature="0"
       id="path4436-5"
       d="m 12.915474,27.26619 v 9 c 0,2 2.000001,2 2.000001,2 h 8.999999 c 2,0 2,-2 2,-2 v -9 c 0,-2 -2,-2 -2,-2 h -8.999999 c -2.000001,0 -2.000001,2 -2.000001,2 z"
       style="color:#000000;font-style:normal;font-variant:normal;font-weight:normal;font-stretch:normal;font-size:medium;line-height:normal;font-family:Sans;-inkscape-font-specification:Sans;text-indent:0;text-align:start;text-decoration:none;text-decoration-line:none;letter-spacing:normal;word-spacing:normal;text-transform:none;writing-mode:lr-tb;direction:ltr;baseline-shift:baseline;text-anchor:start;display:inline;overflow:visible;visibility:visible;fill:url(#linearGradient4448-7);fill-opacity:1;stroke:none;stroke-width:1;marker:none;enable-background:accumulate" />
    <path
       style="color:#000000;font-style:normal;font-variant:normal;font-weight:normal;font-stretch:normal;font-size:medium;line-height:normal;font-family:Sans;-inkscape-font-specification:Sans;text-indent:0;text-align:start;text-decoration:none;text-decoration-line:none;letter-spacing:normal;word-spacing:normal;text-transform:none;writing-mode:lr-tb;direction:ltr;baseline-shift:baseline;text-anchor:start;display:inline;overflow:visible;visibility:visible;opacity:0.41000001;fill:none;fill-opacity:1;stroke:#000000;stroke-width:1;stroke-opacity:1;marker:none;enable-background:accumulate"
       d="m 12.915474,36.26619 v -9 c 0,-2 2.000001,-2 2.000001,-2 h 8.999999 c 2,0 2,2 2,2 v 9 c 0,2 -2,2 -2,2 h -8.999999 c -2.000001,0 -2.000001,-2 -2.000001,-2 z"
       id="path3832-0"
       inkscape:connector-curvature="0"
       sodipodi:nodetypes="ccccccccc" />
    <path
       id="path3811-3"
       d="m 14.915475,25.76619 c 0,0 -0.400507,-0.0029 -0.78125,0.1875 -0.380743,0.190371 -0.71875,0.479167 -0.71875,1.3125 v 1 c 0,-0.833333 0.338007,-1.122129 0.71875,-1.3125 0.380743,-0.19037 0.78125,-0.1875 0.78125,-0.1875 h 8.999999 c 0.833333,0 1.122128,0.338007 1.3125,0.71875 0.1904,0.380743 0.1875,0.78125 0.1875,0.78125 v -1 c 0,0 0.0029,-0.400507 -0.1875,-0.78125 -0.190372,-0.380743 -0.479167,-0.71875 -1.3125,-0.71875 z"
       style="color:#000000;font-style:normal;font-variant:normal;font-weight:normal;font-stretch:normal;font-size:medium;line-height:normal;font-family:Sans;-inkscape-font-specification:Sans;text-indent:0;text-align:start;text-decoration:none;text-decoration-line:none;letter-spacing:normal;word-spacing:normal;text-transform:none;writing-mode:lr-tb;direction:ltr;baseline-shift:baseline;text-anchor:start;display:inline;overflow:visible;visibility:visible;opacity:0.1;fill:#000000;fill-opacity:1;stroke:none;stroke-width:1;marker:none;enable-background:accumulate"
       inkscape:connector-curvature="0" />
    <path
       id="path3825-6"
       d="m 14.915475,25.76619 c 0,0 -0.400507,-0.0029 -0.78125,0.1875 -0.380743,0.190371 -0.71875,0.479167 -0.71875,1.3125 v 2 c 0,-0.833333 0.338007,-1.122129 0.71875,-1.3125 0.380743,-0.19037 0.78125,-0.1875 0.78125,-0.1875 h 8.999999 c 0.833333,0 1.122128,0.338007 1.3125,0.71875 0.1904,0.380743 0.1875,0.78125 0.1875,0.78125 v -2 c 0,0 0.0029,-0.400507 -0.1875,-0.78125 -0.190372,-0.380743 -0.479167,-0.71875 -1.3125,-0.71875 z"
       style="color:#000000;font-style:normal;font-variant:normal;font-weight:normal;font-stretch:normal;font-size:medium;line-height:normal;font-family:Sans;-inkscape-font-specification:Sans;text-indent:0;text-align:start;text-decoration:none;text-decoration-line:none;letter-spacing:normal;word-spacing:normal;text-transform:none;writing-mode:lr-tb;direction:ltr;baseline-shift:baseline;text-anchor:start;display:inline;overflow:visible;visibility:visible;opacity:0.05;fill:#000000;fill-opacity:1;stroke:none;stroke-width:1;marker:none;enable-background:accumulate"
       inkscape:connector-curvature="0" />
    <path
       clip-path="url(#clipPath3852-9)"
       style="color:#000000;font-style:normal;font-variant:normal;font-weight:normal;font-stretch:normal;font-size:medium;line-height:normal;font-family:Sans;-inkscape-font-specification:Sans;text-indent:0;text-align:start;text-decoration:none;text-decoration-line:none;letter-spacing:normal;word-spacing:normal;text-transform:none;writing-mode:lr-tb;direction:ltr;baseline-shift:baseline;text-anchor:start;display:inline;overflow:visible;visibility:visible;opacity:0.05;fill:none;fill-opacity:1;stroke:#000000;stroke-width:2;stroke-miterlimit:4;stroke-dasharray:none;stroke-opacity:1;marker:none;enable-background:accumulate"
       d="M 3.5,2 C 3.5,2 3.099493,1.9971285 2.71875,2.1875 2.338007,2.3778715 2,2.6666667 2,3.5 v 9 c 0,0 -0.00287,0.400507 0.1875,0.78125 C 2.3778715,13.661993 2.6666667,14 3.5,14 h 9 c 0,0 0.400507,0.0029 0.78125,-0.1875 C 13.661993,13.622128 14,13.333333 14,12.5 v -9 C 14,3.5 14.0029,3.099493 13.8125,2.71875 13.622128,2.338007 13.333333,2 12.5,2 Z"
       id="path3850-1"
       inkscape:connector-curvature="0"
       transform="translate(11.415474,23.76619)" />
  </g>
  <g
     id="g1225"
     transform="matrix(1.1887542,0,0,1.1887542,-10.029855,-3.1980134)">
    <path
       sodipodi:nodetypes="ccccccccc"
       inkscape:connector-curvature="0"
       id="path4436-6"
       d="m 13.970142,10.391506 v 9 c 0,2 2,2 2,2 h 9 c 2,0 2,-2 2,-2 v -9 c 0,-2 -2,-2 -2,-2 h -9 c -2,0 -2,2 -2,2 z"
       style="color:#000000;font-style:normal;font-variant:normal;font-weight:normal;font-stretch:normal;font-size:medium;line-height:normal;font-family:Sans;-inkscape-font-specification:Sans;text-indent:0;text-align:start;text-decoration:none;text-decoration-line:none;letter-spacing:normal;word-spacing:normal;text-transform:none;writing-mode:lr-tb;direction:ltr;baseline-shift:baseline;text-anchor:start;display:inline;overflow:visible;visibility:visible;fill:url(#linearGradient4448-3);fill-opacity:1;stroke:none;stroke-width:1;marker:none;enable-background:accumulate" />
    <path
       style="color:#000000;font-style:normal;font-variant:normal;font-weight:normal;font-stretch:normal;font-size:medium;line-height:normal;font-family:Sans;-inkscape-font-specification:Sans;text-indent:0;text-align:start;text-decoration:none;text-decoration-line:none;letter-spacing:normal;word-spacing:normal;text-transform:none;writing-mode:lr-tb;direction:ltr;baseline-shift:baseline;text-anchor:start;display:inline;overflow:visible;visibility:visible;opacity:0.41000001;fill:none;fill-opacity:1;stroke:#000000;stroke-width:1;stroke-opacity:1;marker:none;enable-background:accumulate"
       d="m 13.970142,19.391506 v -9 c 0,-2 2,-2 2,-2 h 9 c 2,0 2,2 2,2 v 9 c 0,2 -2,2 -2,2 h -9 c -2,0 -2,-2 -2,-2 z"
       id="path3832-1"
       inkscape:connector-curvature="0"
       sodipodi:nodetypes="ccccccccc" />
    <path
       id="path3811-5"
       d="m 15.970142,8.891506 c 0,0 -0.400507,-0.00287 -0.78125,0.1875 -0.380743,0.1903715 -0.71875,0.4791667 -0.71875,1.3125 v 1 c 0,-0.833333 0.338007,-1.122128 0.71875,-1.3125 0.380743,-0.19037 0.78125,-0.1875 0.78125,-0.1875 h 9 c 0.833333,0 1.122128,0.338007 1.3125,0.71875 0.1904,0.380743 0.1875,0.78125 0.1875,0.78125 v -1 c 0,0 0.0029,-0.400507 -0.1875,-0.78125 -0.190372,-0.380743 -0.479167,-0.71875 -1.3125,-0.71875 z"
       style="color:#000000;font-style:normal;font-variant:normal;font-weight:normal;font-stretch:normal;font-size:medium;line-height:normal;font-family:Sans;-inkscape-font-specification:Sans;text-indent:0;text-align:start;text-decoration:none;text-decoration-line:none;letter-spacing:normal;word-spacing:normal;text-transform:none;writing-mode:lr-tb;direction:ltr;baseline-shift:baseline;text-anchor:start;display:inline;overflow:visible;visibility:visible;opacity:0.1;fill:#000000;fill-opacity:1;stroke:none;stroke-width:1;marker:none;enable-background:accumulate"
       inkscape:connector-curvature="0" />
    <path
       id="path3825-5"
       d="m 15.970142,8.891506 c 0,0 -0.400507,-0.00287 -0.78125,0.1875 -0.380743,0.1903715 -0.71875,0.4791667 -0.71875,1.3125 v 2 c 0,-0.833333 0.338007,-1.122128 0.71875,-1.3125 0.380743,-0.19037 0.78125,-0.1875 0.78125,-0.1875 h 9 c 0.833333,0 1.122128,0.338007 1.3125,0.71875 0.1904,0.380743 0.1875,0.78125 0.1875,0.78125 v -2 c 0,0 0.0029,-0.400507 -0.1875,-0.78125 -0.190372,-0.380743 -0.479167,-0.71875 -1.3125,-0.71875 z"
       style="color:#000000;font-style:normal;font-variant:normal;font-weight:normal;font-stretch:normal;font-size:medium;line-height:normal;font-family:Sans;-inkscape-font-specification:Sans;text-indent:0;text-align:start;text-decoration:none;text-decoration-line:none;letter-spacing:normal;word-spacing:normal;text-transform:none;writing-mode:lr-tb;direction:ltr;baseline-shift:baseline;text-anchor:start;display:inline;overflow:visible;visibility:visible;opacity:0.05;fill:#000000;fill-opacity:1;stroke:none;stroke-width:1;marker:none;enable-background:accumulate"
       inkscape:connector-curvature="0" />
    <path
       clip-path="url(#clipPath3852-0)"
       style="color:#000000;font-style:normal;font-variant:normal;font-weight:normal;font-stretch:normal;font-size:medium;line-height:normal;font-family:Sans;-inkscape-font-specification:Sans;text-indent:0;text-align:start;text-decoration:none;text-decoration-line:none;letter-spacing:normal;word-spacing:normal;text-transform:none;writing-mode:lr-tb;direction:ltr;baseline-shift:baseline;text-anchor:start;display:inline;overflow:visible;visibility:visible;opacity:0.05;fill:none;fill-opacity:1;stroke:#000000;stroke-width:2;stroke-miterlimit:4;stroke-dasharray:none;stroke-opacity:1;marker:none;enable-background:accumulate"
       d="M 3.5,2 C 3.5,2 3.099493,1.9971285 2.71875,2.1875 2.338007,2.3778715 2,2.6666667 2,3.5 v 9 c 0,0 -0.00287,0.400507 0.1875,0.78125 C 2.3778715,13.661993 2.6666667,14 3.5,14 h 9 c 0,0 0.400507,0.0029 0.78125,-0.1875 C 13.661993,13.622128 14,13.333333 14,12.5 v -9 C 14,3.5 14.0029,3.099493 13.8125,2.71875 13.622128,2.338007 13.333333,2 12.5,2 Z"
       id="path3850-4"
       inkscape:connector-curvature="0"
       transform="translate(12.470142,6.891506)" />
  </g>
  <g
     transform="translate(-965.9093,174.68312)"
     id="g4">
    <g
       id="g997"
       transform="translate(21.285113,-14.765348)">
      <path
         sodipodi:nodetypes="cccccccssccccc"
         id="path1542"
         d="m 962.42772,-151.02917 c -0.18426,-0.0189 -0.36745,0.072 -0.46213,0.24623 l -4.03379,7.42354 -2.59346,-2.07415 c -0.23101,-0.12697 -0.51924,-0.0453 -0.64548,0.18707 l -1.16302,1.50187 c -0.12622,0.23236 -0.0413,0.52217 0.18971,0.64914 0,0 4.73534,3.93378 4.74118,3.93669 0.0542,0.0298 0.11076,0.0447 0.16832,0.052 0.18801,0.0239 0.38042,-0.065 0.47707,-0.24286 l 5.4401,-10.01155 c 0.12622,-0.23236 0.0413,-0.52218 -0.18971,-0.64914 l -1.74554,-0.96346 c -0.0577,-0.0317 -0.12183,-0.0491 -0.18325,-0.0554 z"
         style="display:inline;overflow:visible;visibility:visible;fill:url(#linearGradient2427);fill-opacity:1;fill-rule:nonzero;stroke:none;stroke-width:0.79761338;stroke-linecap:round;stroke-linejoin:round;stroke-miterlimit:4;stroke-dasharray:none;stroke-dashoffset:0;stroke-opacity:1;marker:none;marker-start:none;marker-mid:none;marker-end:none"
         inkscape:connector-curvature="0" />
      <path
         d="M 12.341797,1.6445312 7.0078125,11.478516 A 0.15034923,0.15034923 0 0 1 6.78125,11.523438 L 3.1191406,8.6191406 C 2.7910658,9.0263277 2.5174958,9.4045294 2.1445312,9.8828125 c 0.1041712,0.086339 1.3178468,1.0920325 2.6445313,2.1933595 0.691201,0.57379 1.385447,1.150928 1.9101563,1.58789 0.2623546,0.218482 0.4818176,0.401782 0.6386718,0.533204 0.050209,0.04207 0.082566,0.0688 0.1191406,0.09961 0.051922,-0.09237 0.1074732,-0.189462 0.25,-0.449219 0.1919644,-0.349857 0.4553308,-0.831123 0.765625,-1.40039 C 9.0932447,11.30873 9.901509,9.8213182 10.707031,8.3378906 11.512553,6.854463 12.315565,5.3745135 12.921875,4.2558594 13.22503,3.6965323 13.478839,3.2276362 13.660156,2.8925781 13.800041,2.634084 13.852097,2.5400712 13.892578,2.4648438 13.834889,2.432144 13.797433,2.410334 13.6875,2.3515625 13.515614,2.2596697 13.298852,2.1458233 13.083984,2.0332031 12.869116,1.9205829 12.65596,1.8099612 12.494141,1.7246094 12.432365,1.6920257 12.386438,1.6684538 12.341797,1.6445312 Z"
         id="path2429"
         style="display:inline;overflow:visible;visibility:visible;opacity:0.4;fill:none;fill-opacity:1;fill-rule:nonzero;stroke:url(#linearGradient2431);stroke-width:1.00278986;stroke-linecap:round;stroke-linejoin:miter;stroke-miterlimit:4;stroke-dasharray:none;stroke-dashoffset:0;stroke-opacity:1;marker:none;marker-start:none;marker-mid:none;marker-end:none"
         inkscape:original="M 12.28125 1.4375 L 6.875 11.40625 L 3.09375 8.40625 C 2.6820225 8.9059211 2.404593 9.316202 1.9375 9.90625 C 1.9375 9.9062502 7.433729 14.461489 7.5 14.53125 C 7.7067149 14.194095 14.001667 2.5836147 14.09375 2.40625 C 13.95587 2.3101328 12.32883 1.4760941 12.28125 1.4375 z "
         inkscape:radius="-0.15033419"
         sodipodi:type="inkscape:offset"
         transform="matrix(0.79539432,0,0,0.79539432,952.67488,-151.43041)" />
      <path
         style="display:inline;overflow:visible;visibility:visible;opacity:0.5;fill:none;fill-opacity:1;fill-rule:nonzero;stroke:#0f5a00;stroke-width:0.79761338;stroke-linecap:round;stroke-linejoin:round;stroke-miterlimit:4;stroke-dasharray:none;stroke-dashoffset:0;stroke-opacity:1;marker:none;marker-start:none;marker-mid:none;marker-end:none"
         d="m 962.42772,-151.02917 c -0.18426,-0.0189 -0.36745,0.072 -0.46213,0.24623 l -4.03379,7.42354 -2.59346,-2.07415 c -0.23101,-0.12697 -0.51924,-0.0453 -0.64548,0.18707 l -1.16302,1.50187 c -0.12622,0.23236 -0.0413,0.52217 0.18971,0.64914 0,0 4.73534,3.93378 4.74118,3.93669 0.0542,0.0298 0.11076,0.0447 0.16832,0.052 0.18801,0.0239 0.38042,-0.065 0.47707,-0.24286 l 5.4401,-10.01155 c 0.12622,-0.23236 0.0413,-0.52218 -0.18971,-0.64914 l -1.74554,-0.96346 c -0.0577,-0.0317 -0.12183,-0.0491 -0.18325,-0.0554 z"
         id="path4538"
         sodipodi:nodetypes="cccccccssccccc"
         inkscape:connector-curvature="0" />
    </g>
  </g>
</svg>
