<?xml version="1.0" encoding="UTF-8" standalone="no"?>
<svg
   xmlns:dc="http://purl.org/dc/elements/1.1/"
   xmlns:cc="http://creativecommons.org/ns#"
   xmlns:rdf="http://www.w3.org/1999/02/22-rdf-syntax-ns#"
   xmlns:svg="http://www.w3.org/2000/svg"
   xmlns="http://www.w3.org/2000/svg"
   xmlns:sodipodi="http://sodipodi.sourceforge.net/DTD/sodipodi-0.dtd"
   xmlns:inkscape="http://www.inkscape.org/namespaces/inkscape"
   height="16"
   width="16"
   version="1.1"
   id="svg8"
   sodipodi:docname="visible.svg"
   inkscape:export-filename="/home/juliette/Documents/MyNotes-master/mynoteslib/images/visible.png"
   inkscape:export-xdpi="96"
   inkscape:export-ydpi="96"
   inkscape:version="0.92.2 2405546, 2018-03-11">
  <metadata
     id="metadata14">
    <rdf:RDF>
      <cc:Work
         rdf:about="">
        <dc:format>image/svg+xml</dc:format>
        <dc:type
           rdf:resource="http://purl.org/dc/dcmitype/StillImage" />
        <dc:title></dc:title>
      </cc:Work>
    </rdf:RDF>
  </metadata>
  <defs
     id="defs12" />
  <sodipodi:namedview
     pagecolor="#ffffff"
     bordercolor="#666666"
     borderopacity="1"
     objecttolerance="10"
     gridtolerance="10"
     guidetolerance="10"
     inkscape:pageopacity="0"
     inkscape:pageshadow="2"
     inkscape:window-width="1680"
     inkscape:window-height="1001"
     id="namedview10"
     showgrid="false"
     inkscape:zoom="5.2149125"
     inkscape:cx="6.1010738"
     inkscape:cy="40.697611"
     inkscape:window-x="0"
     inkscape:window-y="23"
     inkscape:window-maximized="1"
     inkscape:current-layer="g6" />
  <g
     transform="translate(-717 -89)"
     id="g6">
    <path
       style="fill:#666666"
       d="M 8.0175781,3 C 7.8667781,3.0018 7.7160363,3.01242 7.5664062,3.03125 6.1950964,3.10177 4.8618506,3.5051972 3.6816406,4.2070312 2.3588485,5.0319907 1.1336697,6.2433441 0.4140625,7.4003906 0.3042825,7.5815976 0.24443437,7.788174 0.24023438,8 c 0,0.197 0.0578281,0.3966094 0.17382812,0.5996094 0.80539,1.320357 1.9291181,2.4184196 3.2675781,3.1933596 C 5.0506406,12.596969 6.4955781,13 8.0175781,13 9.479236,12.800134 11.088591,12.441681 12.353516,11.796875 13.694416,11.023045 14.818004,9.9231904 15.621094,8.5996094 15.736094,8.3966094 15.794922,8.197 15.794922,8 c 0,-0.197 -0.05883,-0.3966094 -0.173828,-0.5996094 C 14.815424,6.0799116 13.692346,4.9818353 12.353516,4.2070312 11.183416,3.5114473 9.8630363,3.1088711 8.5039062,3.0332031 8.3427264,3.0123431 8.1800981,3.00112 8.0175781,3 Z m 0,1.5 c 0.66667,0 0.66667,1 0,1 -0.834,0 -1.5,0.666 -1.5,1.5 -6e-5,0.02545 -0.00186,0.051032 -0.00586,0.076172 L 9.9414062,10.505859 C 11.221376,9.8036238 12.017258,8.459951 12.017578,7 12.015578,6.294127 11.827013,5.6015315 11.470703,4.9921875 12.752703,5.6691875 13.825594,6.668 14.683594,8 c -0.73564,1.153233 -1.72614,2.122664 -2.894532,2.833984 -1.121957,0.690731 -2.4650533,0.819315 -3.7714839,1.054688 -1.33071,0.006 -2.6372344,-0.358768 -3.7714843,-1.054688 C 3.0773436,10.122785 2.0874825,9.153345 1.3515625,8 2.269229,6.6070325 3.2254157,5.8764022 4.5625,4.9921875 4.5471,5.0216675 3.9753617,6.714818 4.0566406,6.4570312 4.0313406,6.6369352 4.0181781,6.818324 4.0175781,7 c 0,2.209139 1.79086,4 4,4 0.18105,-0.0014 2.0234519,-0.468251 1.9238281,-0.494141 L 5.4355469,7.40625 C 5.3931681,7.0971365 5.3351906,6.7216463 5.4179688,6.3945312 5.5545681,5.8547303 5.698206,5.471462 6.1269531,5.21875 6.5290229,4.8211896 7.4799781,4.5031285 8.0175781,4.5 Z"
       transform="translate(717,89)"
       id="path2"
       inkscape:connector-curvature="0"
       sodipodi:nodetypes="ccccccccccscccccsccccccccccccccccscc" />
    <circle
       style="opacity:1;fill:#4a4a4a;fill-opacity:1;stroke:#666666;stroke-width:1.20000005;stroke-linecap:round;stroke-linejoin:round;stroke-miterlimit:4;stroke-dasharray:none;stroke-dashoffset:0;stroke-opacity:1"
       id="path822"
       cx="725.11859"
       cy="96.251328"
       r="3.6440678" />
    <path
       style="opacity:1;fill:none;fill-opacity:1;stroke:#ffffff;stroke-width:1.20000005;stroke-linecap:round;stroke-linejoin:round;stroke-miterlimit:4;stroke-dasharray:none;stroke-dashoffset:0;stroke-opacity:1"
       id="path824"
       sodipodi:type="arc"
       sodipodi:cx="725.11865"
       sodipodi:cy="96.322044"
       sodipodi:rx="2.5084746"
       sodipodi:ry="2.5084746"
       sodipodi:start="2.6904079"
       sodipodi:end="4.6250359"
       d="m 722.8612,97.41582 a 2.5084746,2.5084746 0 0 1 0.0757,-2.331751 2.5084746,2.5084746 0 0 1 1.96287,-1.260935"
       sodipodi:open="true" />
    <rect
       style="opacity:1;fill:#bb0000;fill-opacity:1;stroke:#ffffff;stroke-width:0.3;stroke-linecap:round;stroke-linejoin:round;stroke-miterlimit:4;stroke-dasharray:none;stroke-dashoffset:0;stroke-opacity:1"
       id="rect848"
       width="18.246994"
       height="1.4926418"
       x="435.14966"
       y="580.3775"
       ry="0.70062739"
       transform="rotate(-45)" />
  </g>
</svg>
